<svg xmlns="http://www.w3.org/2000/svg" xmlns:xlink="http://www.w3.org/1999/xlink" version="1.1" x="0px" y="0px" width="160px" height="40px" viewBox="0 0 160 40" enable-background="new 0 0 160 40" xml:space="preserve"><style>.style0{opacity:	0.8;}.style1{fill:	#FFFFFF;}</style><g class="style0"><g><g><path d="M20.131 15.917c-0.649-0.723-1.43-1.292-2.344-1.706c-0.914-0.415-1.913-0.622-2.998-0.622 c-0.723 0-1.361 0.074-1.914 0.223c-0.553 0.149-1.042 0.341-1.467 0.574c-0.426 0.234-0.787 0.484-1.084 0.8 c-0.298 0.266-0.542 0.525-0.733 0.781H9.496V5.169H5.668v24.11h3.636v-2.297h0.064c0.552 0.9 1.3 1.6 2.2 2 c0.935 0.4 1.9 0.6 3 0.639c1.169 0 2.222-0.208 3.157-0.622c0.936-0.415 1.733-0.983 2.392-1.706 c0.659-0.723 1.159-1.573 1.499-2.552c0.34-0.978 0.51-2.03 0.51-3.157s-0.181-2.179-0.542-3.157 C21.284 17.5 20.8 16.6 20.1 15.917z M18.058 23.348c-0.202 0.553-0.5 1.042-0.893 1.5 c-0.394 0.426-0.867 0.766-1.419 1.021c-0.553 0.255-1.18 0.383-1.881 0.383s-1.329-0.128-1.882-0.383s-1.026-0.595-1.419-1.021 C10.17 24.4 9.9 23.9 9.7 23.348c-0.202-0.553-0.303-1.127-0.303-1.723c0-0.595 0.101-1.169 0.303-1.722 c0.202-0.553 0.5-1.042 0.893-1.467c0.393-0.426 0.866-0.766 1.419-1.021c0.553-0.255 1.18-0.382 1.882-0.382 s1.328 0.1 1.9 0.382c0.553 0.3 1 0.6 1.4 1.021c0.393 0.4 0.7 0.9 0.9 1.467s0.303 1.1 0.3 1.7 C18.361 22.2 18.3 22.8 18.1 23.348z" class="style1"/><path d="M38.5 15.757c-0.627-0.701-1.382-1.238-2.264-1.61c-0.883-0.371-1.855-0.558-2.918-0.558 c-1.148 0-2.232 0.191-3.253 0.574c-1.021 0.382-1.903 0.925-2.647 1.626c-0.745 0.701-1.334 1.547-1.77 2.5 c-0.436 0.989-0.654 2.089-0.654 3.301s0.218 2.3 0.7 3.301c0.436 1 1 1.8 1.8 2.5 c0.744 0.7 1.6 1.2 2.6 1.627s2.104 0.6 3.3 0.574c1.211 0 2.37-0.234 3.476-0.702 c1.105-0.467 2.104-1.254 2.998-2.359l-2.743-2.073c-0.489 0.596-1.058 1.09-1.706 1.482c-0.649 0.395-1.451 0.591-2.408 0.6 c-1.084 0-2.009-0.319-2.774-0.957c-0.766-0.638-1.212-1.531-1.34-2.679h11.672v-1.053c0-1.34-0.175-2.524-0.526-3.556 C39.617 17.3 39.1 16.5 38.5 15.757z M28.821 20.095c0.148-1.105 0.558-1.988 1.228-2.647 c0.67-0.658 1.579-0.988 2.727-0.988c1.212 0 2.2 0.3 2.8 0.973c0.68 0.6 1 1.5 1.1 2.663H28.821z" class="style1"/><path d="M52.484 13.589c-1.021 0-1.924 0.244-2.711 0.733s-1.393 1.18-1.817 2.072h-0.064v-2.423h-3.827v15.308 h3.827v-8.196c0-0.212 0.048-0.531 0.144-0.957c0.096-0.425 0.287-0.85 0.574-1.275c0.287-0.425 0.702-0.802 1.244-1.132 c0.542-0.33 1.26-0.494 2.152-0.494c0.298 0 0.6 0 0.9 0.079c0.308 0.1 0.6 0.1 0.9 0.207v-3.699 c-0.234-0.063-0.462-0.116-0.686-0.159C52.947 13.6 52.7 13.6 52.5 13.589z" class="style1"/><polygon points="71.1,14 66.2,14 60.3,20.3 60.3,5.2 56.5,5.2 56.5,29.3 60.3,29.3 60.3,21.5 60.4,21.5 66.5,29.3 71.5,29.3 64.5,20.9" class="style1"/><path d="M86.336 15.757c-0.627-0.701-1.382-1.238-2.264-1.61c-0.883-0.371-1.855-0.558-2.918-0.558 c-1.148 0-2.232 0.191-3.253 0.574c-1.021 0.382-1.903 0.925-2.647 1.626c-0.745 0.701-1.334 1.547-1.77 2.5 c-0.436 0.989-0.654 2.089-0.654 3.301s0.218 2.3 0.7 3.301c0.436 1 1 1.8 1.8 2.5 c0.744 0.7 1.6 1.2 2.6 1.627s2.104 0.6 3.3 0.574c1.211 0 2.37-0.234 3.476-0.702 c1.105-0.467 2.104-1.254 2.998-2.359l-2.743-2.073c-0.489 0.596-1.058 1.09-1.706 1.482c-0.649 0.395-1.451 0.591-2.408 0.6 c-1.084 0-2.009-0.319-2.774-0.957c-0.766-0.638-1.212-1.531-1.34-2.679h11.672v-1.053c0-1.34-0.175-2.524-0.526-3.556 C87.452 17.3 87 16.5 86.3 15.757z M76.657 20.095c0.148-1.105 0.558-1.988 1.228-2.647 c0.67-0.658 1.579-0.988 2.727-0.988c1.212 0 2.2 0.3 2.8 0.973c0.68 0.6 1 1.5 1.1 2.663H76.657z" class="style1"/><rect x="92" y="5.2" width="3.8" height="24.1" class="style1"/><path d="M112.933 15.757c-0.627-0.701-1.382-1.238-2.264-1.61c-0.883-0.371-1.855-0.558-2.918-0.558 c-1.148 0-2.232 0.191-3.253 0.574c-1.021 0.382-1.903 0.925-2.647 1.626c-0.745 0.701-1.334 1.547-1.77 2.5 c-0.436 0.989-0.654 2.089-0.654 3.301s0.218 2.3 0.7 3.301c0.436 1 1 1.8 1.8 2.5 c0.744 0.7 1.6 1.2 2.6 1.627s2.104 0.6 3.3 0.574c1.211 0 2.37-0.234 3.476-0.702 c1.105-0.467 2.104-1.254 2.998-2.359l-2.743-2.073c-0.489 0.596-1.058 1.09-1.706 1.482c-0.649 0.395-1.451 0.591-2.408 0.6 c-1.084 0-2.009-0.319-2.774-0.957c-0.766-0.638-1.212-1.531-1.34-2.679h11.672v-1.053c0-1.34-0.175-2.524-0.526-3.556 C114.049 17.3 113.6 16.5 112.9 15.757z M103.254 20.095c0.148-1.105 0.558-1.988 1.228-2.647 c0.67-0.658 1.579-0.988 2.727-0.988c1.212 0 2.2 0.3 2.8 0.973c0.68 0.6 1 1.5 1.1 2.663H103.254z" class="style1"/><path d="M124.972 24.591h-0.064l-4.273-10.619h-4.209l6.538 15.435l-0.733 1.8 c-0.17 0.403-0.33 0.749-0.479 1.036c-0.149 0.287-0.335 0.521-0.558 0.702c-0.223 0.18-0.494 0.313-0.813 0.4 s-0.713 0.127-1.18 0.127c-0.34 0-0.675-0.037-1.004-0.111c-0.33-0.074-0.644-0.165-0.941-0.271l-0.479 3.4 c0.957 0.3 1.9 0.4 2.9 0.383c0.85 0 1.579-0.091 2.185-0.271c0.606-0.181 1.132-0.458 1.579-0.829 c0.447-0.372 0.834-0.829 1.164-1.372c0.33-0.542 0.632-1.175 0.909-1.897l7.239-18.592h-3.987L124.972 24.591z" class="style1"/><path d="M141.871 22.201h-0.037c-0.173-0.297-0.39-0.554-0.65-0.771c-0.26-0.217-0.542-0.396-0.845-0.539 c-0.304-0.142-0.623-0.247-0.957-0.315c-0.334-0.068-0.663-0.103-0.984-0.103c-0.656 0-1.263 0.111-1.82 0.3 c-0.558 0.223-1.034 0.535-1.431 0.938c-0.396 0.403-0.706 0.88-0.929 1.431c-0.223 0.551-0.334 1.155-0.334 1.8 s0.112 1.3 0.3 1.811c0.223 0.6 0.5 1 0.9 1.431s0.873 0.7 1.4 0.938c0.557 0.2 1.2 0.3 1.8 0.3 c0.322 0 0.65-0.034 0.984-0.103c0.334-0.067 0.653-0.173 0.957-0.315c0.303-0.143 0.585-0.322 0.845-0.539 c0.26-0.216 0.477-0.474 0.65-0.771h0.037v1.505h1.115V15.235h-1.115V22.201z M141.704 26.4 c-0.186 0.427-0.44 0.799-0.762 1.114c-0.322 0.315-0.7 0.566-1.133 0.752c-0.434 0.187-0.904 0.279-1.412 0.3 c-0.52 0-0.991-0.093-1.412-0.279c-0.421-0.186-0.78-0.437-1.078-0.752s-0.523-0.688-0.678-1.114 c-0.155-0.428-0.232-0.883-0.232-1.365c0-0.483 0.077-0.938 0.232-1.365c0.154-0.428 0.38-0.799 0.678-1.115 c0.297-0.315 0.656-0.566 1.078-0.752c0.421-0.186 0.892-0.279 1.412-0.279c0.508 0 1 0.1 1.4 0.3 s0.811 0.4 1.1 0.752c0.322 0.3 0.6 0.7 0.8 1.115c0.186 0.4 0.3 0.9 0.3 1.4 C141.983 25.5 141.9 25.9 141.7 26.354z" class="style1"/><rect x="145.9" y="20.7" width="1.1" height="8.6" class="style1"/><path d="M146.478 16.461c-0.235 0-0.434 0.081-0.594 0.242c-0.161 0.161-0.242 0.359-0.242 0.6 c0 0.2 0.1 0.4 0.2 0.595c0.161 0.2 0.4 0.2 0.6 0.241s0.434-0.08 0.595-0.241 c0.161-0.16 0.241-0.358 0.241-0.595c0-0.234-0.081-0.433-0.241-0.594C146.912 16.5 146.7 16.5 146.5 16.461z" class="style1"/><path d="M154.345 20.502c-0.105-0.019-0.213-0.028-0.325-0.028c-0.644 0-1.189 0.161-1.635 0.5 s-0.812 0.736-1.096 1.244c-0.025-0.086-0.04-0.278-0.046-0.575c-0.006-0.298-0.016-0.607-0.028-0.929H150.1 c0 0.1 0 0.3 0 0.474c0.012 0.2 0 0.4 0 0.659s0.016 0.5 0 0.7 c0.012 0.2 0 0.4 0 0.585v6.168h1.114v-4.682c0-0.421 0.056-0.814 0.167-1.18c0.111-0.365 0.281-0.684 0.511-0.956 c0.229-0.272 0.52-0.486 0.873-0.642c0.353-0.154 0.771-0.231 1.254-0.231c0.136 0 0.3 0 0.4 0.074l0.13-1.097 C154.559 20.5 154.4 20.5 154.3 20.502z" class="style1"/></g></g></g><g></g><g></g><g></g><g></g><g></g><g></g><g></g><g></g><g></g><g></g><g></g><g></g><g></g><g></g><g></g></svg>